<?xml version="1.0" encoding="UTF-8" standalone="no"?>
<!DOCTYPE svg PUBLIC "-//W3C//DTD SVG 1.1//EN" "http://www.w3.org/Graphics/SVG/1.1/DTD/svg11.dtd">
<svg version="1.1" xmlns="http://www.w3.org/2000/svg" xmlns:xlink="http://www.w3.org/1999/xlink" preserveAspectRatio="xMidYMid meet" viewBox="0 0 640 640" width="640" height="640"><defs><path d="M640 320C640 496.61 496.61 640 320 640C143.39 640 0 496.61 0 320C0 143.39 143.39 0 320 0C496.61 0 640 143.39 640 320Z" id="aycIsZhYi"></path><path d="M184.02 545.75L184.02 367.85L324.84 367.85L324.84 545.75L184.02 545.75ZM184.02 456.8L324.69 367.85L184.02 367.85L184.02 456.8Z" id="d8AQJ9mHp"></path><path d="M184.02 545.75L184.02 456.8L324.69 545.75L184.02 545.75Z" id="bDxCwpQbp"></path><path d="M184.02 456.8L324.69 456.8L324.69 545.75L184.02 456.8Z" id="a2004fQGrE"></path><path d="M395.02 545.75L394.25 377.99L465.15 333.28L464.34 545.75L395.02 545.75Z" id="c3eLBkf7VZ"></path><path d="M465.35 278.9L184.02 101L184.02 456.8L184.02 456.8L465.35 278.9Z" id="b1OLOicXdf"></path><path d="M323.67 278.9L464.34 278.9L323.67 367.85L323.67 278.9Z" id="aZCkvVN69"></path><path d="M184.02 367.85L184.02 278.9L324.69 367.85L184.02 367.85Z" id="a2csuVlZK7"></path><path d="M184.02 278.9L184.02 189.95L324.69 278.9L184.02 278.9Z" id="a60IKL3AU"></path><path d="M184.02 278.9L324.69 278.9L324.69 367.85L184.02 278.9Z" id="a87UFWZex0"></path><path d="M324.69 278.9L324.69 189.95L465.35 278.9L324.69 278.9Z" id="a1aZdT82jB"></path><path d="M184.02 278.9L324.69 189.95L324.69 278.9L184.02 278.9Z" id="a5gBWbBBWh"></path><path d="M184.02 189.95L184.02 101L324.69 189.95L184.02 189.95Z" id="cHjZgjsEa"></path><path d="M395.02 545.75L394.82 500.72L464.34 456.8L464.34 545.75L395.02 545.75Z" id="cBWRIVhwE"></path><path d="" id="a7X28yNDm1"></path></defs><g><g><g><use xlink:href="#aycIsZhYi" opacity="1" fill="#676767" fill-opacity="1"></use></g><g><g><filter id="shadow16365458" x="93.02" y="276.85" width="323.82" height="360.9" filterUnits="userSpaceOnUse" primitiveUnits="userSpaceOnUse"><feFlood></feFlood><feComposite in2="SourceAlpha" operator="in"></feComposite><feGaussianBlur stdDeviation="6.32"></feGaussianBlur><feOffset dx="1" dy="1" result="afterOffset"></feOffset><feFlood flood-color="#000000" flood-opacity="0.5"></feFlood><feComposite in2="afterOffset" operator="in"></feComposite><feMorphology operator="dilate" radius="5"></feMorphology><feComposite in2="SourceAlpha" operator="out"></feComposite></filter><path d="M184.02 545.75L184.02 367.85L324.84 367.85L324.84 545.75L184.02 545.75ZM184.02 456.8L324.69 367.85L184.02 367.85L184.02 456.8Z" id="a1sZ4WuIMl" fill="white" fill-opacity="1" filter="url(#shadow16365458)"></path></g><use xlink:href="#d8AQJ9mHp" opacity="1" fill="#cdff66" fill-opacity="1"></use></g><g><use xlink:href="#bDxCwpQbp" opacity="0.15" fill="#ffffff" fill-opacity="1"></use></g><g><use xlink:href="#a2004fQGrE" opacity="0.45" fill="#ffffff" fill-opacity="1"></use></g><g><g><filter id="shadow606775" x="303.25" y="242.28" width="253.89" height="395.47" filterUnits="userSpaceOnUse" primitiveUnits="userSpaceOnUse"><feFlood></feFlood><feComposite in2="SourceAlpha" operator="in"></feComposite><feGaussianBlur stdDeviation="6.32"></feGaussianBlur><feOffset dx="1" dy="1" result="afterOffset"></feOffset><feFlood flood-color="#000000" flood-opacity="0.5"></feFlood><feComposite in2="afterOffset" operator="in"></feComposite><feMorphology operator="dilate" radius="5"></feMorphology><feComposite in2="SourceAlpha" operator="out"></feComposite></filter><path d="M395.02 545.75L394.25 377.99L465.15 333.28L464.34 545.75L395.02 545.75Z" id="dZY5WoLTD" fill="white" fill-opacity="1" filter="url(#shadow606775)"></path></g><use xlink:href="#c3eLBkf7VZ" opacity="1" fill="#ff66e4" fill-opacity="1"></use></g><g><g><filter id="shadow958069" x="93.02" y="10" width="464.33" height="538.8" filterUnits="userSpaceOnUse" primitiveUnits="userSpaceOnUse"><feFlood></feFlood><feComposite in2="SourceAlpha" operator="in"></feComposite><feGaussianBlur stdDeviation="6.32"></feGaussianBlur><feOffset dx="1" dy="1" result="afterOffset"></feOffset><feFlood flood-color="#000000" flood-opacity="0.5"></feFlood><feComposite in2="afterOffset" operator="in"></feComposite><feMorphology operator="dilate" radius="5"></feMorphology><feComposite in2="SourceAlpha" operator="out"></feComposite></filter><path d="M465.35 278.9L184.02 101L184.02 456.8L184.02 456.8L465.35 278.9Z" id="e3OgLJNkE" fill="white" fill-opacity="1" filter="url(#shadow958069)"></path></g><use xlink:href="#b1OLOicXdf" opacity="1" fill="#66d9ff" fill-opacity="1"></use></g><g><use xlink:href="#aZCkvVN69" opacity="0" fill="#ffffff" fill-opacity="1"></use></g><g><use xlink:href="#a2csuVlZK7" opacity="0.3" fill="#ffffff" fill-opacity="1"></use></g><g><use xlink:href="#a60IKL3AU" opacity="0" fill="#ffffff" fill-opacity="1"></use></g><g><use xlink:href="#a87UFWZex0" opacity="0.15" fill="#ffffff" fill-opacity="1"></use></g><g><use xlink:href="#a1aZdT82jB" opacity="0.45" fill="#ffffff" fill-opacity="1"></use></g><g><use xlink:href="#a5gBWbBBWh" opacity="0.3" fill="#ffffff" fill-opacity="1"></use></g><g><use xlink:href="#cHjZgjsEa" opacity="0.15" fill="#ffffff" fill-opacity="1"></use></g><g><use xlink:href="#cBWRIVhwE" opacity="0.15" fill="#ffffff" fill-opacity="1"></use></g><g><g><use xlink:href="#a7X28yNDm1" opacity="1" fill-opacity="0" stroke="#000000" stroke-width="1" stroke-opacity="1"></use></g></g></g></g></svg>