<?xml version="1.0" standalone="no"?>
<!DOCTYPE svg PUBLIC "-//W3C//DTD SVG 20010904//EN"
 "http://www.w3.org/TR/2001/REC-SVG-20010904/DTD/svg10.dtd">
<svg version="1.0" xmlns="http://www.w3.org/2000/svg"
 width="700.000000pt" height="700.000000pt" viewBox="0 0 700.000000 700.000000"
 preserveAspectRatio="xMidYMid meet">
<metadata>
Created by potrace 1.11, written by Peter Selinger 2001-2013
</metadata>
<g transform="translate(0.000000,700.000000) scale(0.100000,-0.100000)"
fill="#000000" stroke="none">
<path d="M3274 6989 c-1017 -65 -1951 -570 -2568 -1389 -357 -474 -580 -1008
-665 -1595 -132 -899 95 -1823 626 -2553 484 -664 1167 -1131 1958 -1337 714
-185 1479 -137 2166 135 860 342 1557 1021 1924 1876 66 152 157 433 194 594
200 888 52 1809 -415 2585 -342 569 -854 1039 -1449 1330 -350 172 -664 270
-1040 324 -250 37 -483 46 -731 30z m-463 -1597 c426 -269 1113 -703 1527
-965 l753 -475 -28 -19 c-16 -11 -362 -230 -771 -488 l-742 -469 0 -970 0
-971 -770 -3 -770 -2 0 2431 c0 2039 2 2430 14 2426 7 -3 361 -225 787 -495z
m2275 -2079 c-3 -21 -6 -543 -6 -1160 l0 -1123 -380 0 -380 0 -2 860 c-1 473
-2 886 -3 917 l0 58 380 241 c209 133 384 243 389 243 5 1 6 -16 2 -36z"/>
</g>
</svg>
